<?xml version="1.0" encoding="iso-8859-1"?>
<!-- Generator: Adobe Illustrator 19.0.0, SVG Export Plug-In . SVG Version: 6.00 Build 0)  -->
<svg version="1.1" id="Capa_1" xmlns="http://www.w3.org/2000/svg" xmlns:xlink="http://www.w3.org/1999/xlink" x="0px" y="0px"
	 viewBox="0 0 511.998 511.998" style="enable-background:new 0 0 511.998 511.998;" xml:space="preserve">
<g>
	<path style="fill:#579ADD;" d="M144.243,246.762h-24.76c-1.068,0-1.935-0.866-1.935-1.935V212.88c0-1.068-0.866-1.935-1.935-1.935
		H91.978c-1.068,0-1.935,0.866-1.935,1.935v86.24c0,1.068,0.866,1.935,1.935,1.935h23.635c1.068,0,1.935-0.866,1.935-1.935v-31.571
		c0-1.068,0.866-1.935,1.935-1.935h24.76c1.068,0,1.935,0.866,1.935,1.935v31.571c0,1.068,0.866,1.935,1.935,1.935h23.638
		c1.068,0,1.935-0.866,1.935-1.935v-86.24c0-1.068-0.866-1.935-1.935-1.935h-23.638c-1.068,0-1.935,0.866-1.935,1.935v31.948
		C146.177,245.896,145.311,246.762,144.243,246.762z"/>
	<path style="fill:#579ADD;" d="M195.961,301.055h23.632c1.068,0,1.935-0.866,1.935-1.935v-86.24c0-1.068-0.866-1.935-1.935-1.935
		h-23.632c-1.068,0-1.935,0.866-1.935,1.935v86.24C194.026,300.188,194.892,301.055,195.961,301.055z"/>
	<path style="fill:#579ADD;" d="M33.531,209.061c-10.275,0-22.544,0.665-31.804,1.686C0.744,210.855,0,211.682,0,212.671v86.449
		c0,1.068,0.866,1.935,1.935,1.935h23.632c1.068,0,1.935-0.866,1.935-1.935V281.5c0-1.068,0.866-1.935,1.935-1.935H37.3
		c25.616,0,41.819-13.198,41.819-36.196C79.119,218.108,61.787,209.061,33.531,209.061z M32.026,263.353h-2.59
		c-1.068,0-1.935-0.866-1.935-1.935v-33.437c0-1.05,0.842-1.914,1.892-1.937c0.911-0.02,1.788-0.02,2.633-0.02
		c13.562,0,19.966,6.409,19.966,17.72C51.991,255.436,46.337,263.353,32.026,263.353z"/>
	<path style="fill:#579ADD;" d="M387.3,209.061c-10.272,0-22.545,0.665-31.8,1.686c-0.983,0.108-1.727,0.935-1.727,1.924v86.45
		c0,1.068,0.866,1.935,1.935,1.935h23.628c1.068,0,1.935-0.866,1.935-1.935V281.5c0-1.068,0.866-1.935,1.935-1.935h7.862
		c25.616,0,41.822-13.198,41.822-36.196C432.888,218.108,415.553,209.061,387.3,209.061z M385.791,263.353h-2.587
		c-1.068,0-1.935-0.866-1.935-1.935v-33.437c0-1.05,0.842-1.914,1.892-1.937c0.91-0.02,1.787-0.02,2.63-0.02
		c13.562,0,19.969,6.409,19.969,17.72C405.76,255.436,400.106,263.353,385.791,263.353z"/>
	<path style="fill:#579ADD;" d="M267.441,210.945h-23.635c-1.068,0-1.935,0.866-1.935,1.935v86.24c0,1.068,0.866,1.935,1.935,1.935
		h46.254c0.902,0,1.684-0.624,1.886-1.503l3.257-14.227c0.277-1.211-0.643-2.366-1.886-2.366H271.31
		c-1.068,0-1.935-0.866-1.935-1.935V212.88C269.376,211.812,268.51,210.945,267.441,210.945z"/>
	<path style="fill:#579ADD;" d="M468.679,233.943c0-4.901,4.895-7.165,12.806-7.165c7.443,0,15.44,1.393,21.608,3.459
		c1.338,0.448,2.68-0.656,2.519-2.058l-1.738-15.093c-0.095-0.829-0.712-1.505-1.529-1.673c-6.633-1.363-12.945-2.352-23.874-2.352
		c-22.23,0-37.3,8.764-37.3,27.143c0,31.671,42.95,25.262,42.95,39.965c0,5.66-4.142,8.673-14.318,8.673
		c-7.971,0-19.752-2.343-28.109-5.743c-1.392-0.566-2.871,0.576-2.655,2.063l2.335,16.085c0.104,0.716,0.591,1.323,1.277,1.555
		c8.173,2.758,18.887,4.137,27.528,4.137c22.982,0,41.819-7.538,41.819-30.163C512,242.614,468.679,248.27,468.679,233.943z"/>
	<path style="fill:#579ADD;" d="M307.478,301.055h23.635c1.068,0,1.935-0.866,1.935-1.935v-86.24c0-1.068-0.866-1.935-1.935-1.935
		h-23.635c-1.068,0-1.935,0.866-1.935,1.935v86.24C305.544,300.188,306.41,301.055,307.478,301.055z"/>
</g>
<g>
	<path style="fill:#4987CE;" d="M109.619,299.12v-86.24c0-1.068,0.866-1.934,1.935-1.934H91.978c-1.068,0-1.934,0.866-1.934,1.934
		v86.24c0,1.068,0.866,1.935,1.934,1.935h19.575C110.485,301.055,109.619,300.188,109.619,299.12z"/>
	<path style="fill:#4987CE;" d="M165.752,244.828V212.88c0-1.068,0.866-1.934,1.935-1.934h-19.575c-1.068,0-1.934,0.866-1.934,1.934
		v31.948c0,1.068-0.866,1.934-1.934,1.934h19.575C164.886,246.762,165.752,245.896,165.752,244.828z"/>
	<path style="fill:#4987CE;" d="M165.752,299.12v-31.571c0-1.068-0.866-1.934-1.934-1.934h-19.575c1.068,0,1.934,0.866,1.934,1.934
		v31.571c0,1.068,0.866,1.935,1.934,1.935h19.575C166.618,301.055,165.752,300.188,165.752,299.12z"/>
	<path style="fill:#4987CE;" d="M213.601,299.12v-86.24c0-1.068,0.866-1.934,1.935-1.934h-19.575c-1.068,0-1.934,0.866-1.934,1.934
		v86.24c0,1.068,0.866,1.935,1.934,1.935h19.575C214.467,301.055,213.601,300.188,213.601,299.12z"/>
	<path style="fill:#4987CE;" d="M19.575,299.055v-89.334c0-0.108,0.013-0.213,0.03-0.317c-6.319,0.293-12.589,0.76-17.877,1.342
		C0.744,210.855,0,211.682,0,212.671v86.449c0,1.068,0.866,1.935,1.934,1.935h19.639C20.47,301.055,19.575,300.16,19.575,299.055z"
		/>
	<path style="fill:#4987CE;" d="M373.347,299.055v-89.372c0-0.095,0.013-0.186,0.026-0.278c-6.319,0.293-12.588,0.76-17.873,1.342
		c-0.983,0.108-1.727,0.935-1.727,1.924v86.449c0,1.068,0.866,1.935,1.934,1.935h19.64
		C374.242,301.055,373.347,300.159,373.347,299.055z"/>
	<path style="fill:#4987CE;" d="M261.447,299.12v-86.24c0-1.068,0.866-1.934,1.935-1.934h-19.575c-1.068,0-1.934,0.866-1.934,1.934
		v86.24c0,1.068,0.866,1.935,1.934,1.935h19.575C262.313,301.055,261.447,300.188,261.447,299.12z"/>
	<path style="fill:#4987CE;" d="M325.118,299.12v-86.24c0-1.068,0.866-1.934,1.935-1.934h-19.575c-1.068,0-1.934,0.866-1.934,1.934
		v86.24c0,1.068,0.866,1.935,1.934,1.935h19.575C325.985,301.055,325.118,300.188,325.118,299.12z"/>
	<path style="fill:#4987CE;" d="M463.837,223.502L463.837,223.502c4.522-8.013,13.747-12.617,25.949-13.995
		c-3.236-0.283-6.893-0.447-11.313-0.447c-22.23,0-37.3,8.764-37.3,27.143c0,24.876,26.494,26.26,37.864,32.834
		C447.733,250.175,463.837,223.502,463.837,223.502z"/>
	<path style="fill:#4987CE;" d="M459.001,283.817c-5.955-0.999-12.254-2.663-17.305-4.718c-1.392-0.566-2.871,0.576-2.655,2.063
		l2.335,16.085c0.104,0.716,0.591,1.323,1.277,1.555c6.041,2.039,13.469,3.321,20.423,3.853
		C457.97,294.212,459.001,283.817,459.001,283.817z"/>
</g>
<g>
</g>
<g>
</g>
<g>
</g>
<g>
</g>
<g>
</g>
<g>
</g>
<g>
</g>
<g>
</g>
<g>
</g>
<g>
</g>
<g>
</g>
<g>
</g>
<g>
</g>
<g>
</g>
<g>
</g>
</svg>
