<svg height="512pt" viewBox="-104 0 512 512" width="512pt" xmlns="http://www.w3.org/2000/svg"><path d="m7.5 123.332031c4.140625 0 7.5-3.355469 7.5-7.5v-20.164062c0-4.144531-3.359375-7.5-7.5-7.5s-7.5 3.355469-7.5 7.5v20.164062c0 4.144531 3.359375 7.5 7.5 7.5zm0 0"/><path d="m254.851562 0h-205.703124c-27.101563 0-49.148438 22.050781-49.148438 49.148438v14.519531c0 4.140625 3.359375 7.5 7.5 7.5s7.5-3.359375 7.5-7.5v-14.519531c0-18.828126 15.320312-34.148438 34.148438-34.148438h205.703124c18.828126 0 34.148438 15.320312 34.148438 34.148438v198.851562h-274v-100.167969c0-4.140625-3.359375-7.5-7.5-7.5s-7.5 3.359375-7.5 7.5v315.019531c0 27.101563 22.046875 49.148438 49.148438 49.148438h205.703124c27.101563 0 49.148438-22.050781 49.148438-49.148438v-111.183593c0-4.144531-3.359375-7.5-7.5-7.5s-7.5 3.355469-7.5 7.5v111.183593c0 18.828126-15.320312 34.148438-34.148438 34.148438h-205.703124c-18.828126 0-34.148438-15.320312-34.148438-34.148438v-172.851562h274v29.332031c0 4.144531 3.359375 7.5 7.5 7.5s7.5-3.355469 7.5-7.5v-270.183593c0-27.097657-22.046875-49.148438-49.148438-49.148438zm-239.851562 275v-12h274v12zm0 0"/><path d="m61 395.5c-8.546875 0-15.5 6.953125-15.5 15.5v25c0 8.546875 6.953125 15.5 15.5 15.5h62c8.546875 0 15.5-6.953125 15.5-15.5v-25c0-8.546875-6.953125-15.5-15.5-15.5zm62.5 15.5v25c0 .273438-.222656.5-.5.5h-62c-.277344 0-.5-.226562-.5-.5v-25c0-.273438.222656-.5.5-.5h62c.277344 0 .5.226562.5.5zm0 0"/><path d="m181 451.5h62c8.546875 0 15.5-6.953125 15.5-15.5v-25c0-8.546875-6.953125-15.5-15.5-15.5h-62c-8.546875 0-15.5 6.953125-15.5 15.5v25c0 8.546875 6.953125 15.5 15.5 15.5zm-.5-40.5c0-.273438.222656-.5.5-.5h62c.277344 0 .5.226562.5.5v25c0 .273438-.222656.5-.5.5h-62c-.277344 0-.5-.226562-.5-.5zm0 0"/><path d="m182.5 344.5c0-5.238281-1.351562-10.40625-3.910156-14.945312-2.035156-3.609376-6.613282-4.886719-10.21875-2.851563-3.609375 2.035156-4.882813 6.609375-2.851563 10.21875 1.296875 2.292969 1.980469 4.914063 1.980469 7.578125 0 8.546875-6.953125 15.5-15.5 15.5s-15.5-6.953125-15.5-15.5c0-2.664062.683594-5.285156 1.976562-7.578125 2.035157-3.609375.757813-8.183594-2.847656-10.21875-3.609375-2.03125-8.183594-.757813-10.21875 2.851563-2.558594 4.539062-3.914062 9.707031-3.914062 14.945312 0 16.816406 13.683594 30.5 30.5 30.5 16.820312 0 30.503906-13.683594 30.503906-30.5zm0 0"/><path d="m159.5 340.5v-25c0-4.144531-3.359375-7.5-7.5-7.5s-7.5 3.355469-7.5 7.5v25c0 4.144531 3.359375 7.5 7.5 7.5s7.5-3.355469 7.5-7.5zm0 0"/><path d="m262.363281 40h-223.863281c-4.140625 0-7.5 3.355469-7.5 7.5s3.359375 7.5 7.5 7.5h223.863281c4.140625 0 7.5-3.355469 7.5-7.5s-3.359375-7.5-7.5-7.5zm0 0"/><path d="m262.886719 67h-223.863281c-4.140626 0-7.5 3.355469-7.5 7.5s3.359374 7.5 7.5 7.5h223.863281c4.140625 0 7.5-3.355469 7.5-7.5s-3.359375-7.5-7.5-7.5zm0 0"/><path d="m263.40625 94h-223.859375c-4.144531 0-7.5 3.355469-7.5 7.5s3.355469 7.5 7.5 7.5h223.859375c4.144531 0 7.5-3.355469 7.5-7.5s-3.355469-7.5-7.5-7.5zm0 0"/><path d="m263.929688 121h-223.859376c-4.144531 0-7.5 3.355469-7.5 7.5s3.355469 7.5 7.5 7.5h223.859376c4.140624 0 7.5-3.355469 7.5-7.5s-3.355469-7.5-7.5-7.5zm0 0"/><path d="m264.453125 148h-223.859375c-4.144531 0-7.5 3.355469-7.5 7.5s3.355469 7.5 7.5 7.5h223.859375c4.144531 0 7.5-3.355469 7.5-7.5s-3.355469-7.5-7.5-7.5zm0 0"/><path d="m264.976562 175h-223.863281c-4.140625 0-7.5 3.355469-7.5 7.5s3.359375 7.5 7.5 7.5h223.863281c4.140626 0 7.5-3.355469 7.5-7.5s-3.359374-7.5-7.5-7.5zm0 0"/><path d="m41.636719 202c-4.140625 0-7.5 3.355469-7.5 7.5s3.359375 7.5 7.5 7.5h223.863281c4.140625 0 7.5-3.355469 7.5-7.5s-3.359375-7.5-7.5-7.5zm0 0"/></svg>