<svg id="Capa_1" enable-background="new 0 0 512 512" height="512" viewBox="0 0 512 512" width="512" xmlns="http://www.w3.org/2000/svg"><g><path d="m184.495 85.399c-32.687 0-59.279 26.592-59.279 59.279s26.592 59.279 59.279 59.279 59.279-26.592 59.279-59.279-26.593-59.279-59.279-59.279zm0 88.558c-16.145 0-29.279-13.134-29.279-29.279s13.134-29.279 29.279-29.279 29.279 13.134 29.279 29.279-13.135 29.279-29.279 29.279z"/><path d="m329.173 144.752c.01-19.926-10.062-38.272-26.089-49.142 3.662-19.017-2.173-39.116-16.26-53.208-14.086-14.094-34.182-19.938-53.201-16.288-10.861-16.032-29.202-26.114-49.128-26.114-19.852 0-38.162 10.033-49.04 25.985-18.967-3.623-39.019 2.195-53.08 16.208-14.115 14.064-19.991 34.151-16.368 53.175-16.049 10.837-26.16 29.162-26.19 49.088s10.023 38.283 26.039 49.168c-3.681 19.012 2.133 39.118 16.205 53.226 14.072 14.107 34.161 19.976 53.184 16.341 8.076 11.947 20.304 20.595 34.25 24.243v61.218c-13.821-11.167-31.389-17.874-50.5-17.874h-73.786v36.5c0 44.388 36.112 80.5 80.5 80.5h43.786v64.222h30v-64.222h43.786c44.388 0 80.5-36.112 80.5-80.5v-36.5h-73.786c-19.111 0-36.679 6.707-50.5 17.874v-61.267c13.831-3.664 25.964-12.247 34.007-24.093 19.014 3.67 39.118-2.154 53.218-16.232 14.101-14.08 19.956-34.173 16.314-53.192 16.037-10.854 26.129-29.19 26.139-49.116zm-203.464 273.026c-27.846 0-50.5-22.654-50.5-50.5v-6.5h43.786c27.846 0 50.5 22.654 50.5 50.5v6.5zm124.286-57h43.786v6.5c0 27.846-22.654 50.5-50.5 50.5h-43.786v-6.5c0-27.845 22.654-50.5 50.5-50.5zm29.861-188.515-15.431 5.584 6.944 14.869c5.196 11.126 2.847 24.434-5.847 33.115-8.695 8.681-22.008 11.01-33.124 5.797l-14.858-6.967-5.607 15.422c-4.193 11.531-15.252 19.273-27.526 19.273-.01 0-.02 0-.03 0-12.286-.013-23.343-7.781-27.516-19.33l-5.576-15.434-14.872 6.936c-11.13 5.191-24.436 2.834-33.112-5.865-8.676-8.698-10.999-22.011-5.78-33.126l6.975-14.854-15.419-5.615c-11.539-4.202-19.279-15.28-19.26-27.566s7.792-23.339 19.344-27.506l15.437-5.568-6.929-14.875c-5.185-11.131-2.821-24.437 5.882-33.109 8.668-8.638 21.942-10.974 33.031-5.812l14.794 6.886 5.619-15.32c4.211-11.483 15.262-19.198 27.5-19.198 12.286 0 23.352 7.757 27.536 19.302l5.592 15.428 14.865-6.951c11.125-5.203 24.433-2.858 33.119 5.831 8.685 8.689 11.021 22 5.813 33.121l-6.958 14.861 15.424 5.599c11.543 4.19 19.294 15.26 19.288 27.545-.007 12.286-7.77 23.348-19.318 27.527z"/><path d="m341.499 53.34h30v30h-30z"/><path d="m390.85 118.007h30v30h-30z"/><path d="m350.183 197.34h30v30h-30z"/><path d="m442.183 182.34h30v30h-30z"/><path d="m442.183 64.34h30v30h-30z"/></g></svg>