<?xml version="1.0"?>
<svg xmlns="http://www.w3.org/2000/svg" id="Layer_2" data-name="Layer 2" viewBox="0 0 128 128" width="512" height="512"><path d="M92.65,22.75H85.437V14.126h2.5A7.063,7.063,0,1,0,87.937,0H40.063a7.063,7.063,0,0,0,0,14.126h2.5V22.75H35.35A16.769,16.769,0,0,0,18.6,39.5v71.75A16.768,16.768,0,0,0,35.35,128h57.3a16.768,16.768,0,0,0,16.75-16.75V39.5A16.769,16.769,0,0,0,92.65,22.75Zm13.25,29.5H22.1V47.917h83.8Zm0,3.5V95H22.1V55.75ZM22.1,98.5h83.8v4.334H22.1ZM36.5,7.063A3.568,3.568,0,0,1,40.063,3.5H87.937a3.563,3.563,0,1,1,0,7.126H40.063A3.567,3.567,0,0,1,36.5,7.063Zm9.562,7.063H81.937V22.75H46.062ZM35.35,26.25h57.3A13.265,13.265,0,0,1,105.9,39.5v4.917H22.1V39.5A13.265,13.265,0,0,1,35.35,26.25Zm57.3,98.25H35.35A13.265,13.265,0,0,1,22.1,111.25v-4.916h83.8v4.916A13.265,13.265,0,0,1,92.65,124.5Z"/><path d="M64,89.125a9.759,9.759,0,0,0,9.748-9.748c0-4.723-6.921-14.987-8.308-17a1.816,1.816,0,0,0-2.88,0c-1.387,2.009-8.308,12.273-8.308,17A9.759,9.759,0,0,0,64,89.125ZM64,66.53c2.847,4.406,6.248,10.452,6.248,12.847a6.248,6.248,0,0,1-12.5,0C57.752,76.984,61.154,70.937,64,66.53Z"/></svg>
